<svg width="320" height="221" viewBox="0 0 320 221" fill="none" xmlns="http://www.w3.org/2000/svg">
    <path d="M195.5 125.73V138.92H276.79C283.29 134.91 288.98 130.5 293.81 125.73H195.49H195.5Z" fill="#2C5697"></path>
    <path d="M179.71 148.09L179.86 148.02C179.86 148.02 179.8 148.02 179.71 148.03V148.09Z" fill="#2C5697"></path>
    <path d="M277.1 77.0298H312.69C312.54 75.4298 312.32 73.8598 312.03 72.2998H277.1V77.0298Z" fill="#00AEEF"></path>
    <path d="M70.3102 69.9298H57.8802V55.5698H46.2402V94.7698H57.8802V79.2498H70.3102V94.7698H81.9502V55.5698H70.3102V69.9298Z" fill="#2C5697"></path>
    <path d="M93.5898 76.1398C93.5898 83.8998 92.0298 86.2298 85.8198 85.0698V94.7698C92.4198 95.9398 98.2398 94.7698 101.35 90.8898C104.45 87.3898 104.85 81.1898 104.85 76.1398V64.8898H112.22V94.7698H123.48V55.5698H93.5898V76.1398Z" fill="#2C5697"></path>
    <path d="M158.02 55.5698L151.43 78.8598L144.82 55.5698H133.18L127.75 94.7698H138.61L141.33 73.8098L147.54 94.7698H155.31L161.52 73.8098L164.24 94.7698H175.1L169.67 55.5698H158.02Z" fill="#2C5697"></path>
    <path d="M215.08 55.5698H202.27L191.01 71.4798V55.5698H179.37V94.7698H191.01V78.8598L201.49 94.7698H215.47L200.33 74.9798L215.08 55.5698Z" fill="#2C5697"></path>
    <path d="M221.62 109.09V119.91H299.15C301.98 116.46 304.39 112.84 306.37 109.09H221.62Z" fill="#2C5697"></path>
    <path d="M245.08 94.6201V103.26H309.07C310.18 100.45 311.04 97.5701 311.68 94.6201H245.08Z" fill="#2C5697"></path>
    <path d="M261.75 82.8501V88.7901H312.63C312.84 86.8301 312.95 84.8501 312.96 82.8501H261.76H261.75Z" fill="#2C5697"></path>
    <path d="M160.74 147.96C88.29 147.96 16.24 125.9 17.01 79.06C17.72 36.08 73.33 2.04 158.01 0.81L159.48 0C67.08 0 6 33.36 6 82.64C6 131.92 67.08 165.28 159.48 165.28C199.47 165.28 233.47 159 259.22 147.97C259.22 147.97 170.59 147.97 160.74 147.97V147.96Z" fill="#2C5697"></path>
    <path d="M13.0733 198.27H16.0369L10.3487 211.104C9.75917 212.443 9.09793 213.431 8.365 214.068C7.648 214.689 6.79557 215 5.8077 215C4.81983 215 4.05503 214.777 3.5133 214.331L4.541 211.845C4.95527 212.116 5.36953 212.251 5.7838 212.251C6.53267 212.251 7.08237 211.861 7.4329 211.08L7.6719 210.507L0.2868 198.27H3.6089L9.082 207.615L13.0733 198.27ZM36.6774 215H33.7616V207.854H26.1136V215H23.1739V198.27H26.1136V205.105H33.7616V198.27H36.6774V215ZM57.2024 203.122L48.4311 215H45.8499V198.27H48.7896V210.172L57.5609 198.27H60.1421V215H57.2024V203.122ZM69.3195 214.976V198.318C71.0403 198.238 72.6496 198.198 74.1473 198.198C75.9956 198.198 77.3738 198.565 78.282 199.298C79.1902 200.031 79.6443 201.042 79.6443 202.333C79.6443 204.133 78.8477 205.4 77.2543 206.133V206.181C78.1625 206.42 78.8795 206.874 79.4053 207.543C79.9311 208.196 80.194 209.041 80.194 210.077C80.194 211.702 79.6364 212.945 78.521 213.805C77.4057 214.665 75.892 215.096 73.98 215.096C72.068 215.096 70.5145 215.056 69.3195 214.976ZM74.3385 207.806H72.2592V212.228C73.0081 212.307 73.6534 212.347 74.1951 212.347C76.2346 212.347 77.2543 211.542 77.2543 209.933C77.2543 209.232 76.9994 208.706 76.4895 208.356C75.9797 207.989 75.2627 207.806 74.3385 207.806ZM74.0995 200.947C73.3985 200.947 72.785 200.971 72.2592 201.018V205.249H74.2429C74.9918 205.249 75.5893 205.058 76.0354 204.675C76.4975 204.293 76.7285 203.743 76.7285 203.026C76.7285 202.357 76.4975 201.847 76.0354 201.497C75.5734 201.13 74.9281 200.947 74.0995 200.947ZM98.5298 215H88.6113V198.27H98.2908V201.018H91.551V205.177H97.5738V207.926H91.551V212.251H98.5298V215ZM109.839 208.953V215H106.899V198.27C107.601 198.27 108.357 198.262 109.17 198.246C109.999 198.23 110.827 198.222 111.656 198.222C112.835 198.222 113.854 198.374 114.715 198.676C115.591 198.963 116.268 199.369 116.746 199.895C117.224 200.405 117.575 200.971 117.798 201.592C118.021 202.198 118.132 202.867 118.132 203.6C118.132 205.113 117.591 206.396 116.507 207.448C115.44 208.499 113.942 209.025 112.014 209.025C111.042 209.025 110.317 209.001 109.839 208.953ZM111.942 200.971L109.839 201.018V206.157C110.684 206.237 111.377 206.276 111.918 206.276C112.859 206.276 113.607 206.045 114.165 205.583C114.739 205.121 115.025 204.452 115.025 203.576C115.025 201.839 113.998 200.971 111.942 200.971ZM137.573 211.176L138.697 213.375C138.171 213.932 137.414 214.387 136.426 214.737C135.454 215.088 134.426 215.263 133.343 215.263C130.794 215.263 128.714 214.474 127.105 212.897C125.512 211.319 124.715 209.232 124.715 206.635C124.715 204.149 125.472 202.086 126.986 200.445C128.483 198.82 130.579 198.007 133.271 198.007C135.406 198.007 137.103 198.573 138.362 199.704L137.047 201.879C135.916 201.13 134.657 200.756 133.271 200.756C131.678 200.756 130.371 201.289 129.352 202.357C128.332 203.424 127.822 204.85 127.822 206.635C127.822 208.388 128.356 209.806 129.423 210.889C130.507 211.973 131.901 212.514 133.606 212.514C135.072 212.514 136.394 212.068 137.573 211.176ZM157.512 203.122L148.741 215H146.16V198.27H149.1V210.172L157.871 198.27H160.452V215H157.512V203.122ZM172.976 201.018H167.55V198.27H181.341V201.018H175.915V215H172.976V201.018ZM198.35 215H188.431V198.27H198.111V201.018H191.371V205.177H197.394V207.926H191.371V212.251H198.35V215ZM210.065 201.018H204.64V198.27H218.43V201.018H213.005V215H210.065V201.018ZM248.63 215H245.714V207.854H238.066V215H235.127V198.27H238.066V205.105H245.714V198.27H248.63V215ZM270.589 215H267.673V201.018H262.798L262.463 204.173C262.272 206.085 262.025 207.718 261.722 209.073C261.42 210.427 261.085 211.511 260.719 212.323C260.352 213.136 259.914 213.757 259.404 214.187C258.91 214.618 258.392 214.888 257.851 215C257.325 215.096 256.711 215.096 256.01 215L256.082 212.084C256.432 212.132 256.719 212.116 256.942 212.036C257.165 211.957 257.428 211.734 257.731 211.367C258.066 210.953 258.337 210.403 258.544 209.718C259.117 208.013 259.539 205.313 259.81 201.616L260.049 198.27H270.589V215ZM282.695 215H279.755V198.27H282.719L288.431 206.085L293.88 198.27H296.653V215H293.737V202.907L288.455 210.339H288.025L282.695 202.978V215ZM308.779 215H305.839V198.27H308.779V206.205L315.375 198.27H318.912L312.029 206.061L319.342 215H315.614L308.779 206.372V215Z" fill="#2C5697"></path>
</svg>